<?xml version="1.0" encoding="utf-8" ?>
<svg xmlns="http://www.w3.org/2000/svg" xmlns:xlink="http://www.w3.org/1999/xlink" width="512" height="512">
	<path fill="white" transform="scale(0.666667 0.666667)" d="M-0 -0L768 0L768 768L-0 768L0 -0Z"/>
	<path transform="scale(0.666667 0.666667)" d="M374.108 149.044C385.221 148.898 396.757 148.934 407.812 149.995C440.968 153.179 474.969 163.808 503.922 180.344C535.962 198.643 562.531 222.573 582.938 253.449C588.396 261.708 593.66 270.47 597.837 279.463C604.226 293.221 608.926 308.007 612.895 322.634C614.896 330.008 616.142 337.516 617.282 345.063C622.354 378.633 620.021 414.325 610.115 446.847C605.032 463.536 597.372 480.265 588.706 495.41C559.183 547.003 509.022 585.659 451.59 601.142C388.312 618.2 318.165 610.99 261.211 577.921C247.427 569.918 233.802 560.412 221.968 549.729C211.679 540.44 202.767 530.067 194.499 518.978C188.16 510.477 182.088 501.909 176.911 492.634C167.723 476.171 161.042 458.15 156.2 439.952C140.273 380.087 149.236 315.157 180.415 261.696C192.156 241.564 206.781 222.808 224.464 207.543C234.989 198.457 246.605 190.729 258.531 183.622C277.613 172.249 297.179 163.611 318.662 157.93L344.062 153.135C345.285 152.892 346.675 152.886 347.841 152.537L348.188 152.407L348.035 152.69C345.555 152.955 342.938 153.7 340.485 154.194C336.825 154.931 333.003 155.682 329.438 156.801C326.291 157.789 323.152 159.33 320.137 160.674C307.715 166.211 296.6 173.731 286.685 183.04C263.991 204.346 245.152 233.66 238.564 264.307C236.558 273.64 236 283.044 235.677 292.561C235.229 305.79 236.582 318.525 238.879 331.525C246.401 374.094 266.18 412.893 295.682 444.4C327.089 477.94 368.064 501.971 412.092 514.63C429.911 519.753 448.824 523.301 467.391 523.88C478.018 524.211 488.948 524.227 499.526 522.981C523.791 520.124 546.469 511.171 564.346 494.2C577.4 481.807 586.541 465.754 593.014 449.098C597.245 438.21 600.31 427.521 600.631 415.799C598.822 419.15 597.463 422.724 595.618 426.061C588.804 438.393 578.94 449.693 567.462 457.855C535.318 480.713 495.145 481.353 457.744 475.046C402.046 465.655 348.304 432.292 315.646 386.234C288.265 347.619 272.472 298.805 280.706 251.334C284.522 229.338 292.504 209.209 305.281 190.875C311.157 182.443 318.136 174.274 326.212 167.846C331.193 163.881 336.586 160.26 342.094 157.064C344.415 155.717 347.412 154.666 349.494 153.108C350.945 152.022 352.955 151.789 354.695 151.366C361.166 149.792 367.478 149.354 374.108 149.044Z"/>
</svg>
